<?xml version="1.0" encoding="iso-8859-1"?>
<!-- Uploaded to: SVG Repo, www.svgrepo.com, Generator: SVG Repo Mixer Tools -->
<svg version="1.1" id="Layer_1" xmlns="http://www.w3.org/2000/svg" xmlns:xlink="http://www.w3.org/1999/xlink" 
	 viewBox="0 0 512 512" xml:space="preserve">
<path style="fill:#57A4FF;" d="M478.609,33.391V0H33.391v33.391H0v311.652h33.391v33.391h55.652V512h66.783v-33.391h33.391v-33.391
	h33.391v-33.391H256v-33.391h222.609v-33.391H512V33.391H478.609z"/>
<rect y="33.391" width="33.391" height="311.652"/>
<rect x="33.391" width="445.217" height="33.391"/>
<rect x="478.609" y="33.391" width="33.391" height="311.652"/>
<rect x="155.826" y="445.217" width="33.391" height="33.391"/>
<rect x="189.217" y="411.826" width="33.391" height="33.391"/>
<rect x="222.609" y="378.435" width="33.391" height="33.391"/>
<rect x="256" y="345.043" width="222.609" height="33.391"/>
<rect x="100.174" y="155.826" width="66.783" height="66.783"/>
<rect x="222.609" y="155.826" width="66.783" height="66.783"/>
<rect x="345.043" y="155.826" width="66.783" height="66.783"/>
<polygon points="122.435,345.043 33.391,345.043 33.391,378.435 89.043,378.435 89.043,512 155.826,512 155.826,478.609 
	122.435,478.609 "/>
</svg>